<?xml version="1.0" encoding="utf-8"?>
<!-- Generator: Adobe Illustrator 15.0.0, SVG Export Plug-In . SVG Version: 6.00 Build 0)  -->
<!DOCTYPE svg PUBLIC "-//W3C//DTD SVG 1.1//EN" "http://www.w3.org/Graphics/SVG/1.1/DTD/svg11.dtd">
<svg version="1.1" id="Capa_1" xmlns="http://www.w3.org/2000/svg" xmlns:xlink="http://www.w3.org/1999/xlink" x="0px" y="0px"
	 width="31.475px" height="31.475px" viewBox="0 0 31.475 31.475" enable-background="new 0 0 31.475 31.475" xml:space="preserve">
<g>
	<path fill="#B70C73" d="M56.245,6.442c0.07-0.695,0.105-1.406,0.105-2.119c0-11.727-9.503-21.238-21.232-21.238
		c-8.635,0-16.064,5.159-19.383,12.559C12.418-11.759,4.986-16.915-3.646-16.915c-11.727,0-21.23,9.511-21.23,21.238
		c0,0.713,0.035,1.424,0.103,2.119c0,0,0.416,20.911,40.771,41.947l0,0C56.346,27.353,56.245,6.442,56.245,6.442z M-3.041-12.235
		c1.928,0,3.485,1.558,3.485,3.483s-1.558,3.485-3.485,3.485c-1.928,0-3.48-1.558-3.48-3.485
		C-6.524-10.675-4.967-12.235-3.041-12.235z M-13.931,13.832c-0.325,0.091-0.658,0.133-0.978,0.133c-1.59,0-3.052-1.053-3.498-2.659
		c-0.547-1.948-0.806-3.74-0.872-5.371c-0.325-8.586,4.965-12.808,5.227-13.017c1.59-1.23,3.874-0.94,5.099,0.647
		c1.222,1.57,0.948,3.818-0.592,5.059c-0.187,0.156-2.482,2.218-2.467,6.63c0.007,1.192,0.179,2.551,0.605,4.098
		C-10.869,11.291-12.003,13.292-13.931,13.832z"/>
</g>
</svg>
