<?xml version="1.0" encoding="utf-8"?>
<!-- Generator: Adobe Illustrator 15.0.0, SVG Export Plug-In . SVG Version: 6.00 Build 0)  -->
<!DOCTYPE svg PUBLIC "-//W3C//DTD SVG 1.1//EN" "http://www.w3.org/Graphics/SVG/1.1/DTD/svg11.dtd">
<svg version="1.1" id="Capa_1" xmlns="http://www.w3.org/2000/svg" xmlns:xlink="http://www.w3.org/1999/xlink" x="0px" y="0px"
	 width="32px" height="32px" viewBox="0 0 32 32" enable-background="new 0 0 32 32" xml:space="preserve">
<g>
	<g id="Link_x5F_1">
		<g>
			<path fill="#34C2E3" stroke="#34C2E3" stroke-width="2.6201" stroke-miterlimit="10" d="M24.314,11.51
				c-0.261-1.577-1.729-2.658-3.324-2.383c-1.575,0.256-2.643,1.746-2.386,3.319c0.192,1.168,0.288,2.362,0.288,3.554
				c0,11.959-9.725,21.686-21.685,21.686c-11.959,0-21.686-9.73-21.686-21.686S-14.752-5.686-2.792-5.686
				c3.407,0,6.671,0.769,9.698,2.281c1.435,0.711,3.167,0.135,3.88-1.293c0.712-1.428,0.134-3.165-1.295-3.879
				c-3.837-1.917-7.969-2.892-12.283-2.892c-15.145,0-27.469,12.324-27.469,27.469c0,15.146,12.324,27.469,27.469,27.469
				c15.145,0,27.468-12.322,27.468-27.469C24.675,14.496,24.556,12.987,24.314,11.51z M34.795-11.469
				C19.652-11.469,7.328,0.855,7.328,16c0,1.485,0.118,2.965,0.355,4.41C7.938,21.986,9.418,23.065,11,22.8
				c1.575-0.255,2.646-1.748,2.388-3.315c-0.185-1.135-0.278-2.31-0.278-3.484c0-11.958,9.723-21.686,21.685-21.686
				C46.76-5.686,56.482,4.042,56.482,16c0,11.959-9.722,21.686-21.687,21.686c-3.411,0-6.67-0.768-9.696-2.28
				c-1.429-0.706-3.168-0.136-3.88,1.293c-0.718,1.423-0.142,3.165,1.287,3.879c3.835,1.917,7.969,2.892,12.284,2.892
				c15.143,0,27.469-12.322,27.469-27.469C62.265,0.855,49.942-11.469,34.795-11.469z"/>
		</g>
	</g>
</g>
</svg>
